<svg width="15" height="15" viewBox="0 0 15 15" fill="none" xmlns="http://www.w3.org/2000/svg">
<g id="account_circle">
<path id="icon" d="M3.65625 10.6875C4.1875 10.2813 4.78125 9.96094 5.4375 9.72656C6.09375 9.49219 6.78125 9.375 7.5 9.375C8.21875 9.375 8.90625 9.49219 9.5625 9.72656C10.2188 9.96094 10.8125 10.2813 11.3437 10.6875C11.7083 10.2604 11.9922 9.77604 12.1953 9.23438C12.3984 8.69271 12.5 8.11458 12.5 7.5C12.5 6.11458 12.013 4.9349 11.0391 3.96094C10.0651 2.98698 8.88542 2.5 7.5 2.5C6.11458 2.5 4.9349 2.98698 3.96094 3.96094C2.98698 4.9349 2.5 6.11458 2.5 7.5C2.5 8.11458 2.60156 8.69271 2.80469 9.23438C3.00781 9.77604 3.29167 10.2604 3.65625 10.6875ZM7.5 8.125C6.88542 8.125 6.36719 7.91406 5.94531 7.49219C5.52344 7.07031 5.3125 6.55208 5.3125 5.9375C5.3125 5.32292 5.52344 4.80469 5.94531 4.38281C6.36719 3.96094 6.88542 3.75 7.5 3.75C8.11458 3.75 8.63281 3.96094 9.05469 4.38281C9.47656 4.80469 9.6875 5.32292 9.6875 5.9375C9.6875 6.55208 9.47656 7.07031 9.05469 7.49219C8.63281 7.91406 8.11458 8.125 7.5 8.125ZM7.5 13.75C6.63542 13.75 5.82292 13.5859 5.0625 13.2578C4.30208 12.9297 3.64062 12.4844 3.07812 11.9219C2.51562 11.3594 2.07031 10.6979 1.74219 9.9375C1.41406 9.17708 1.25 8.36458 1.25 7.5C1.25 6.63542 1.41406 5.82292 1.74219 5.0625C2.07031 4.30208 2.51562 3.64062 3.07812 3.07812C3.64062 2.51562 4.30208 2.07031 5.0625 1.74219C5.82292 1.41406 6.63542 1.25 7.5 1.25C8.36458 1.25 9.17708 1.41406 9.9375 1.74219C10.6979 2.07031 11.3594 2.51562 11.9219 3.07812C12.4844 3.64062 12.9297 4.30208 13.2578 5.0625C13.5859 5.82292 13.75 6.63542 13.75 7.5C13.75 8.36458 13.5859 9.17708 13.2578 9.9375C12.9297 10.6979 12.4844 11.3594 11.9219 11.9219C11.3594 12.4844 10.6979 12.9297 9.9375 13.2578C9.17708 13.5859 8.36458 13.75 7.5 13.75Z" fill="#1D1B20"/>
</g>
</svg>
